<svg version="1.1" id="Layer_1" xmlns="http://www.w3.org/2000/svg" xmlns:xlink="http://www.w3.org/1999/xlink" x="0px" y="0px"
	 width="100%" viewBox="0 0 1024 400" enable-background="new 0 0 1024 400" xml:space="preserve">
<path fill="#000000" opacity="1.000000" stroke="none" 
	d="
M479.922363,277.138611 
	C486.486694,286.563660 490.862640,296.580627 493.385803,307.399597 
	C494.698853,313.029907 494.050751,313.672333 488.474060,312.749451 
	C461.520874,308.289062 445.214325,291.244232 440.746796,262.971527 
	C438.984558,251.819122 439.248077,240.752106 441.698975,229.733414 
	C442.020233,228.289124 442.162720,226.772247 443.722534,225.473114 
	C451.857086,236.670105 464.639709,240.053802 476.553284,244.951126 
	C481.793427,247.105179 486.971802,249.405258 491.791901,252.419418 
	C508.385864,262.796204 515.889648,280.003296 511.946655,299.168640 
	C510.924622,304.136322 510.500153,308.868378 511.888794,313.890320 
	C512.894104,317.525787 513.134888,321.461334 513.153748,325.265839 
	C513.247803,344.262756 513.165039,363.260651 513.115784,382.258118 
	C513.110657,384.229492 513.445679,386.264343 512.443787,388.148529 
	C510.585175,389.191010 509.230621,387.814178 507.856720,387.085083 
	C467.500580,365.668793 432.007843,338.211731 403.489990,302.270325 
	C390.090637,285.382965 377.920258,267.681793 371.080414,246.916183 
	C358.588623,208.991333 372.257019,170.146042 409.565918,149.267944 
	C414.743622,146.370483 418.157806,143.148056 418.392883,136.703705 
	C418.643921,129.820892 422.833282,124.975182 428.856750,121.908577 
	C441.351501,115.547409 454.699493,111.222992 467.637695,105.918663 
	C469.537231,105.139923 471.774658,104.755295 472.734039,107.289307 
	C473.711121,109.870071 471.561035,110.816551 469.774750,111.701202 
	C461.863525,115.619209 453.912201,119.456276 446.005707,123.383690 
	C443.391022,124.682480 440.454315,125.598778 438.785980,128.379227 
	C440.521881,130.726639 442.187256,129.253525 443.708435,128.552002 
	C452.325439,124.578110 460.864838,120.431572 469.540009,116.590813 
	C471.948059,115.524689 475.135559,112.137856 477.254547,116.213951 
	C479.369873,120.282845 474.962128,120.985596 472.541901,122.248520 
	C464.419281,126.487038 456.189941,130.520523 448.042023,134.711441 
	C446.489258,135.510117 444.555176,136.000809 443.909698,138.225266 
	C445.911560,140.485184 447.865417,138.892059 449.667664,138.047287 
	C457.808441,134.231476 465.906189,130.323792 474.018921,126.448166 
	C475.221161,125.873848 476.400604,125.246292 477.626373,124.728012 
	C479.387878,123.983223 481.193085,123.399857 482.359894,125.651375 
	C483.505798,127.862640 482.163910,129.150940 480.447845,130.078461 
	C475.025574,133.009109 469.557037,135.854004 464.108917,138.736877 
	C460.428406,140.684402 456.711090,142.567719 453.094055,144.627014 
	C451.614288,145.469498 449.579041,146.026871 449.698486,148.487473 
	C451.778961,150.427689 453.465759,148.531311 455.056549,147.773468 
	C463.776672,143.619217 472.413788,139.291183 481.108093,135.082001 
	C482.836243,134.245346 484.913940,132.743729 486.408997,135.141068 
	C488.054291,137.779358 485.759491,139.154663 483.941956,140.222534 
	C472.455750,146.971024 461.015228,153.809204 449.346069,160.229645 
	C442.669708,163.903015 435.596100,164.023087 428.841888,160.002335 
	C425.336884,157.915848 422.081055,157.746124 418.585602,160.088440 
	C403.022064,170.517700 393.617279,184.731720 391.611237,203.545914 
	C391.549866,204.121445 391.901123,204.740967 392.143524,205.654755 
	C395.715149,204.842300 398.272919,202.659317 400.912292,200.807373 
	C432.258453,178.812637 466.886719,164.125168 503.756958,154.379318 
	C513.210999,151.880341 513.203125,151.843307 513.206177,161.397583 
	C513.208191,167.563416 513.021912,173.736481 513.267029,179.892487 
	C513.427612,183.926804 511.957306,185.767807 507.949829,186.786316 
	C475.499451,195.033539 445.442749,208.607773 418.020691,227.890701 
	C414.342407,230.477234 410.833862,233.308105 407.121643,235.842621 
	C403.485138,238.325378 402.831635,240.898422 404.939392,245.063736 
	C414.113953,263.194122 425.926727,279.448212 439.312775,294.617676 
	C451.713715,308.670837 465.773254,320.907318 480.881500,331.956085 
	C482.892578,333.426788 484.995270,334.810455 487.187958,335.987823 
	C495.319611,340.354126 501.793579,336.834320 502.729431,327.656952 
	C503.772705,317.426147 501.578430,307.799469 497.470703,298.494446 
	C491.875427,285.819855 484.128265,274.867218 472.200256,267.194153 
	C474.706879,270.410309 477.213470,273.626434 479.922363,277.138611 
z"/>
<path fill="#000000" opacity="1.000000" stroke="none" 
	d="
M598.988831,200.980804 
	C600.431580,203.465820 598.842957,204.944717 597.270752,206.562653 
	C590.469116,213.561920 582.240173,218.671188 574.226135,224.057571 
	C559.441223,233.994598 559.415161,233.968414 559.407837,251.687241 
	C559.398132,275.185394 559.383911,298.683594 559.429565,322.181671 
	C559.434631,324.769165 558.984253,327.509491 561.094849,330.372894 
	C567.896912,326.102051 573.509277,320.438141 579.781555,315.641418 
	C584.200745,312.261871 584.072937,308.860565 581.848572,304.428619 
	C580.364441,301.471588 577.659790,301.237274 575.190002,300.726440 
	C571.732056,300.011200 570.385437,298.202667 570.667175,294.806366 
	C570.804504,293.151276 570.851685,291.456268 570.658752,289.812317 
	C570.114746,285.177338 571.998291,282.786530 576.656067,281.806122 
	C582.815613,280.509613 586.026184,272.927246 582.554749,267.519806 
	C579.754822,263.158417 580.360657,260.253479 584.058350,256.810333 
	C590.625610,250.695251 590.444092,250.500290 596.591370,253.695084 
	C601.836060,256.420776 609.583618,253.174011 611.504517,247.523071 
	C612.329224,245.097031 612.212708,241.683731 615.444214,241.133362 
	C619.680481,240.411880 624.129211,239.968536 628.281433,241.391464 
	C630.536621,242.164307 630.367371,245.015823 631.016541,247.014725 
	C632.233704,250.762115 638.704224,255.510468 642.663757,255.350998 
	C645.680725,255.229492 650.191040,250.165756 651.055298,245.740799 
	C648.346558,244.711136 646.574646,246.570602 645.020203,248.051788 
	C642.126221,250.809280 639.418030,249.625412 636.888794,247.919479 
	C634.053040,246.006805 636.063110,243.644562 637.030945,241.734818 
	C647.692566,220.697205 656.268738,198.913330 660.906738,175.707687 
	C661.462341,172.927719 662.928833,171.793961 665.727112,171.815826 
	C673.725769,171.878326 681.727356,171.905823 689.724060,171.753937 
	C693.627747,171.679794 694.760315,173.287857 693.918701,176.958359 
	C689.336975,196.941391 683.920410,216.640701 675.959778,235.611847 
	C652.516785,291.479828 613.967346,334.502747 564.154114,368.111542 
	C553.354919,375.397675 541.938232,381.577972 530.646362,387.998993 
	C529.797363,388.481812 528.927490,389.082031 527.716064,388.479034 
	C526.271057,387.082825 526.811890,385.143768 526.810303,383.396729 
	C526.780457,351.065765 526.666321,318.734039 526.842957,286.403961 
	C526.979065,261.497345 536.223083,240.602631 555.732422,224.786682 
	C566.772888,215.836334 577.771301,206.958557 585.012329,194.390915 
	C585.322693,193.852280 585.962158,193.503311 586.936279,192.626999 
	C589.998169,196.455750 593.212769,200.111923 598.656006,200.966431 
	C599.011780,201.001907 598.988831,200.980804 598.988831,200.980804 
M609.304321,270.696014 
	C595.937988,279.735016 593.231079,296.282867 603.255737,307.257690 
	C605.244385,309.434814 606.879639,310.386566 609.322876,307.738525 
	C618.476257,297.817719 626.599426,287.106567 634.270508,276.023407 
	C636.288391,273.108032 635.192993,271.580475 632.443787,270.256439 
	C624.918518,266.632233 617.443115,266.362579 609.304321,270.696014 
z"/>
<path fill="#000000" opacity="1.000000" stroke="none" 
	d="
M526.649536,175.000000 
	C526.329773,146.340378 526.794250,118.180275 526.276550,90.015419 
	C526.029175,76.558807 525.643921,63.056282 526.490173,49.573040 
	C526.761108,45.256866 528.352112,44.556358 532.167175,45.766502 
	C554.374634,52.810650 576.629883,59.704121 598.854614,66.694206 
	C628.539856,76.030800 658.302368,85.135391 687.849792,94.890564 
	C701.637878,99.442741 700.126038,95.335510 700.279480,111.163246 
	C700.389404,122.503899 699.499878,133.780548 698.538757,145.064850 
	C698.267517,148.249756 696.941772,149.408875 693.833008,149.369553 
	C686.001465,149.270508 678.164612,149.241333 670.335693,149.428558 
	C666.430908,149.521927 665.422180,147.708786 665.732849,144.219406 
	C666.190552,139.078720 666.329407,133.908020 666.850220,128.775085 
	C667.270874,124.629837 665.818298,122.541725 661.640137,121.249382 
	C638.575134,114.115234 615.606873,106.668350 592.601013,99.342888 
	C583.879944,96.565964 575.142273,93.841377 566.421021,91.065140 
	C561.176025,89.395508 560.166626,89.970207 560.149048,95.542610 
	C560.075256,118.874329 560.180908,142.206757 560.053284,165.538010 
	C560.028748,170.024109 561.649536,171.910538 566.200256,171.747925 
	C572.025330,171.539749 577.865112,171.678009 583.697144,171.763428 
	C585.469604,171.789383 587.370667,171.285629 589.328125,172.789566 
	C584.504333,183.134628 581.720764,194.555618 573.381836,203.162460 
	C571.369568,205.239395 568.812073,205.020920 566.360107,204.928345 
	C562.037781,204.765167 559.653870,206.342926 560.038330,210.998001 
	C560.243103,213.477448 559.481873,215.544434 557.392029,217.107559 
	C545.357666,226.108719 535.272888,236.793732 528.704529,250.500412 
	C528.597473,250.723831 528.150696,250.784531 526.650208,251.495865 
	C526.650208,225.785233 526.650208,200.642593 526.649536,175.000000 
z"/>
<path fill="#000000" opacity="1.000000" stroke="none" 
	d="
M444.139465,100.239532 
	C422.339203,107.128868 400.973053,114.081245 379.471832,120.587158 
	C374.334076,122.141754 372.686737,124.562653 373.016907,129.811600 
	C373.697021,140.623352 374.764313,151.366531 376.837097,161.989700 
	C377.647583,166.143555 377.071930,169.496994 374.506378,173.145279 
	C365.505554,185.944839 360.247345,200.146851 360.105957,216.006622 
	C360.093597,217.392380 360.649719,219.035217 358.882843,220.254440 
	C356.788330,219.058716 356.628021,216.729980 356.022186,214.839005 
	C344.499237,178.872559 339.026215,142.012451 339.634094,104.230125 
	C339.699768,100.148750 341.309479,98.369591 345.039978,97.197975 
	C398.848877,80.298630 452.620972,63.282066 506.406403,46.307987 
	C512.828613,44.281227 513.185730,44.564178 513.208069,51.264984 
	C513.232544,58.593296 512.999939,65.932549 513.337463,73.245880 
	C513.535034,77.526634 511.420715,79.048576 507.843048,80.164116 
	C486.714844,86.752121 465.626129,93.466881 444.139465,100.239532 
z"/>
<path fill="#000000" opacity="1.000000" stroke="none" 
	d="
M599.026245,201.009048 
	C586.373840,191.438721 585.824829,186.261978 596.046631,173.654099 
	C598.457703,170.680145 600.926025,167.717148 602.992432,164.507355 
	C606.109253,159.666031 604.460327,156.283844 598.777405,155.189056 
	C596.221497,154.696686 593.817871,155.217239 591.454285,156.154327 
	C586.625916,158.068558 582.208008,160.717316 577.886902,163.567719 
	C576.431580,164.527725 575.223694,166.189499 573.160522,165.784988 
	C571.982727,164.637756 572.558350,163.556168 573.200500,162.580276 
	C577.845947,155.520660 583.482971,149.463501 591.166809,145.667938 
	C595.671021,143.443008 600.402222,143.133667 605.254578,144.685989 
	C616.780762,148.373322 626.841736,153.794189 633.516846,164.660278 
	C638.314392,172.469818 641.871582,172.349030 648.658508,166.021515 
	C651.712646,163.174103 654.047058,159.323105 658.350525,157.924057 
	C660.019226,160.549988 658.837036,162.529602 657.939514,164.438385 
	C655.647888,169.312180 652.520081,173.593521 648.554443,177.267822 
	C641.841003,183.488068 636.764587,183.852142 629.433105,178.528839 
	C627.693848,177.266006 626.004944,175.933777 624.115601,174.498810 
	C623.361938,174.979141 622.618286,175.330597 622.022278,175.851089 
	C611.139954,185.353745 611.154663,185.341690 622.889282,193.168945 
	C624.544556,194.273056 626.155579,195.502228 627.575623,196.889832 
	C632.512756,201.714218 633.068726,206.660721 628.025818,211.233704 
	C618.125732,220.211182 606.018372,225.434601 593.453674,229.593735 
	C592.960510,229.756958 592.260315,229.295120 591.686951,229.133133 
	C591.194275,226.370102 593.306946,225.519531 594.739502,224.279678 
	C599.901184,219.812363 605.623596,215.995499 610.298035,210.964600 
	C613.895691,207.092484 613.633972,205.696609 608.814880,203.882019 
	C605.865295,202.771393 602.792969,201.986847 599.382324,201.018341 
	C598.988831,200.980804 599.011780,201.001907 599.026245,201.009048 
z"/>
<path fill="#000000" opacity="1.000000" stroke="none" 
	d="
M631.171875,133.758301 
	C636.440979,133.767883 639.775757,135.941330 641.480652,140.583740 
	C643.025879,144.791367 642.046570,148.452469 639.179993,151.669250 
	C636.112305,155.111694 632.196594,155.213959 628.151672,153.979797 
	C623.821167,152.658508 621.371155,148.783234 621.566223,143.942184 
	C621.779785,138.645172 624.674438,135.444901 631.171875,133.758301 
z"/>
</svg>