<svg id="Calque_1" data-name="Calque 1" xmlns="http://www.w3.org/2000/svg" viewBox="0 0 585.83 632.49"><defs><style>.cls-1{fill:#f7931e;}.cls-2{fill:#ba722a;}.cls-3{fill:#f9c887;}.cls-4{fill:#ce882c;}.cls-5{fill:#ed1c24;}.cls-12,.cls-13,.cls-6,.cls-8{fill:none;stroke:#000;stroke-linecap:round;stroke-linejoin:round;}.cls-6{stroke-width:8.5px;}.cls-7{fill:#e27f1b;}.cls-8{stroke-width:9px;}.cls-9{fill:#9e2e3b;}.cls-10{fill:#fff;}.cls-11{fill:#ccc;}.cls-12{stroke-width:6px;}.cls-13{stroke-width:3px;}</style></defs><path class="cls-1" d="M520,478c-38-40.18-84.67-54.85-141.46-58.69v-99.1H230.42V423c-62.07,3.78-96.1,7.93-130.9,34.37C21.39,516.7,11.2,630.73,9.33,659.53c8.93,9.94,56.09,60.48,130.5,60.5,77.48,0,125.75-54.76,133.92-64.33,10.56,11.36,81.11,84.71,183.1,72.82,68.74-8,114-50.34,129.82-66.7C581.45,548.9,535.69,494.61,520,478Z" transform="translate(-5.08 -101.59)"/><path class="cls-2" d="M462.31,437.53c-3.62,4.24,58.87,41.66,87,116.24,13.44,35.6,16,68.65,15.65,93.2-12.65,15.41-40.4,44.56-85.34,59.18-34.9,11.36-64.37,8.89-80.2,7.28-57.29-5.84-94.55-31.53-95.12-30.34-.66,1.37,45.09,40.79,114,46,15.1,1.15,68.52,4.44,120.86-29.32a187.9,187.9,0,0,0,47.52-44.09A255.64,255.64,0,0,0,583,611.37c-.91-5.31-5-28-17.35-57.8-7.43-18-16.39-39.63-34.14-62.11C502.86,455.23,465.1,434.27,462.31,437.53Z" transform="translate(-5.08 -101.59)"/><path class="cls-3" d="M195.27,425.56c.35,1.14-57.35,7.52-100.9,49.32-34,32.6-46.86,74.79-54.08,98.38a290.37,290.37,0,0,0-12.56,77.79c43.42,41.68,82.07,52,106.35,54.53,1.41.14,3.88.34,7.12.56,51.52,3.44,91.55-17.64,110.4-29.5,0,0-41.93,40.85-106.58,42.76-7.89.23-45.38.79-86.27-21A180.16,180.16,0,0,1,9.33,659.53,267,267,0,0,1,113.87,447.67C178.83,429,195.08,424.93,195.27,425.56Z" transform="translate(-5.08 -101.59)"/><polygon class="cls-4" points="229.98 277.93 371.83 313.61 371.83 263.56 229.98 277.93"/><polygon class="cls-3" points="225.34 321.39 246.52 277.72 226.94 271.53 225.34 321.39"/><polygon class="cls-4" points="222.66 541.24 246.52 559.91 235.93 584.19 265.47 554.11 222.66 541.24"/><path class="cls-4" d="M163.92,592.36l-6.33,14.94,12.47,14.13-40.42-12Z" transform="translate(-5.08 -101.59)"/><path class="cls-5" d="M393.72,420.6l-14.5-1.25c-39.06,85.55-94.91,123.86-122.58,109.57-22-11.36-29.43-57.56-25.56-105.95l-22.32,1.5a323.92,323.92,0,0,1-23.56,62,323.43,323.43,0,0,1-39.37,60.44q-12,30.64-24,61.27a380.07,380.07,0,0,1,54.53-18.07,369.6,369.6,0,0,1,56.92-9.56l207.85,53-8.85-90.51A203.27,203.27,0,0,1,393.72,420.6Z" transform="translate(-5.08 -101.59)"/><path class="cls-6" d="M520,478c-38-40.18-84.67-54.85-141.46-58.69v-99.1H230.42V423c-62.07,3.78-96.1,7.93-130.9,34.37C21.39,516.7,11.2,630.73,9.33,659.53c8.93,9.94,56.09,60.48,130.5,60.5,77.48,0,125.75-54.76,133.92-64.33,10.56,11.36,81.11,84.71,183.1,72.82,68.74-8,114-50.34,129.82-66.7C581.45,548.9,535.69,494.61,520,478Z" transform="translate(-5.08 -101.59)"/><path class="cls-7" d="M172.16,189.49c-17.66-12.62-21-21.37-20.06-27.31,1.1-7.18,9.22-15.83,5.61-23-.83-1.64-1.65-1.88-1.56-3,.56-7,33.47-8.76,23.52-16.9-11.23-9.19,15.32-13.79,38.3-9.7s28.93,26.1,28.93,26.1L254.76,153l-65.87,55.15Z" transform="translate(-5.08 -101.59)"/><path class="cls-8" d="M171.79,189.49c-17.66-12.62-21-21.37-20.06-27.31,1.1-7.18,9.22-15.83,5.61-23-.83-1.64-1.65-1.88-1.56-3,.56-7,33.47-8.76,23.52-16.9-11.23-9.19,15.32-13.79,38.3-9.7s28.93,26.1,28.93,26.1L254.39,153l-65.87,55.15Z" transform="translate(-5.08 -101.59)"/><path class="cls-1" d="M153.27,259.33c5.83-73.16,66.76-130.41,139.4-131.75,73.82-1.36,137.51,55.44,144.51,129.7,0,0,33.7,16.86,39.32,34.22s-19.92,7.66-19.92,7.66,3.07,55.66-7.14,56.68-14.81-23-14.81-23c.18,3,1.61,33.91-23,53.62-19.36,15.51-47,17.76-70,5.61-2,3.76-11.64,20.89-32.68,27.58-27,8.59-49.33-7.51-51.57-9.19-2.26,1.32-25.82,14.63-51.58,3.06-22.75-10.22-29.66-32-30.64-35.23-2.39.72-19.94,5.68-35.74-5.11-13.15-9-19.91-25.33-17.36-41.87-4.53,5.33-9.66,7.81-13.08,6.37-1.9-.79-3.48-3-4.29-7.39-3.06-16.86,18.39-39.83,18.39-39.83S79.73,295.56,112.41,269,153.27,259.33,153.27,259.33Z" transform="translate(-5.08 -101.59)"/><path class="cls-1" d="M339.46,123.1q-.65-.25-5.9,11.59s5.95-22,28.93-26.1,49.53.51,38.3,9.7c-10,8.14,23,9.87,23.52,16.9.09,1.13-.73,1.37-1.56,3-3.62,7.15,4.51,15.8,5.61,23,.91,5.94-2.4,14.69-20.06,27.31l-2.4,20.69L331.5,149.6Q340.4,123.45,339.46,123.1Z" transform="translate(-5.08 -101.59)"/><path class="cls-9" d="M140.74,561.29l-15.28,45.42,60.17-18.9c-16.11,8.36-33.62,5-41.24-5.57C138.57,574.2,140.16,564.25,140.74,561.29Z" transform="translate(-5.08 -101.59)"/><path class="cls-9" d="M436.36,590.44q2.37,23.37,4.75,46.73l-60.18-18.9c3.53.77,21.47,4.29,38.12-6.87A48.73,48.73,0,0,0,436.36,590.44Z" transform="translate(-5.08 -101.59)"/><path class="cls-6" d="M393.06,420.6l-14.5-1.25C339.5,504.9,283.66,543.21,256,528.92c-22-11.36-29.43-57.56-25.56-105.95l-22.32,1.5a299.55,299.55,0,0,1-21.81,59.84,300,300,0,0,1-41.12,62.63q-12,30.64-24,61.27L273.75,655.7" transform="translate(-5.08 -101.59)"/><path class="cls-6" d="M397.41,420.6a173.73,173.73,0,0,0,34.85,122.52l9.36,95.73s-176.07-62.8-218.43-58.21-102,27.57-102,27.57" transform="translate(-5.08 -101.59)"/><path class="cls-2" d="M408.35,186.88A116.42,116.42,0,0,1,424,234.37a115,115,0,0,1-1.31,31.92c16.45,6.58,34.42,14.85,33.31,19.82-.52,2.31-4.59,1.37-8.17,4.77-9.72,9.2,4,31.35-4.77,39.83-1.73,1.68-5,3.42-11.55,2.82l17.94,22.31a166.75,166.75,0,0,0,7.14-56.68l20.25-.7a56.1,56.1,0,0,0-7.23-17.11c-11.13-17.45-28.85-23.42-35-25.17a132,132,0,0,0-26.3-69.3Z" transform="translate(-5.08 -101.59)"/><path class="cls-5" d="M410.85,487.05" transform="translate(-5.08 -101.59)"/><path class="cls-10" d="M122,330.55c5.36-5.11,18,5,37.81,3a58.41,58.41,0,0,0,25.45-9.19l62.89-36.77c12.49-.46,31.71.55,51.37,10.12,41.56,20.22,47.29,60.26,76.29,64.95,11.52,1.86,29.61-1.4,55.65-29.11,0,0,2.56,37.41-21.87,55.64-2.45,1.84-15.71,11.1-32.33,9.75-14.62-1.19-22.27-9.87-32.91-6.23-6.7,2.29-10.74,8.16-13,12.36L323.1,412,316,440.26l-21.68,10.25-12.51,10.66H234.07l-16.6-16.32L202.91,431.5a28.6,28.6,0,0,0-14.62-31.33L167,379a35.35,35.35,0,0,1-20.42-1.53,35.9,35.9,0,0,1-18.38-16.66C118.21,340.36,119.21,333.24,122,330.55Z" transform="translate(-5.08 -101.59)"/><path class="cls-8" d="M331.5,334.31a63.38,63.38,0,0,1,10.19,57.78" transform="translate(-5.08 -101.59)"/><path class="cls-11" d="M200.26,420.6a71.46,71.46,0,0,0,55.21,5c7.08,3.44,30,13.48,53.51,4.35a55.08,55.08,0,0,0,12.15-6.59q.21-4.76.41-9.5a57,57,0,0,1-26.89,8.32c-19.34.91-33.09-8.58-37.21-11.66a57.12,57.12,0,0,1-57.42,0Z" transform="translate(-5.08 -101.59)"/><path class="cls-3" d="M122.71,328.33a37.57,37.57,0,0,1,1.7-15c4.13-12.34,12.64-14.71,13.28-24.17.59-8.76-6.27-13-4.09-16.68,1.59-2.7,7.49-4.36,27.24,1a238,238,0,0,1,75.78-132.61,137.85,137.85,0,0,0-52.29,39c-26.28,31.92-30.24,66.56-31.06,79.43-2.23-2.58-6.37-6.48-12.18-7.26-2.58-.34-7.79-.38-20.42,9.19A121.52,121.52,0,0,0,99.9,281.35c1.09,3,3,6.76,6.81,8.85,6,3.31,11.81-.18,13.28,2,2.34,3.55-12.7,12.33-15.7,28.26-1.41,7.48-.36,17.57,4.12,19.06C112.11,340.79,118,336.1,122.71,328.33Z" transform="translate(-5.08 -101.59)"/><path class="cls-8" d="M342.17,122.1a39.61,39.61,0,0,0-5.91,11.59Z" transform="translate(-5.08 -101.59)"/><path class="cls-8" d="M344.65,119a39.27,39.27,0,0,0-2.48,3.07Z" transform="translate(-5.08 -101.59)"/><polygon class="cls-8" points="337.08 20.51 337.09 20.51 337.08 20.51 337.08 20.51"/><polygon class="cls-8" points="339.57 17.44 339.57 17.44 339.57 17.44 339.57 17.44"/><path class="cls-8" d="M476.5,291.5c-5.62-17.36-39.32-34.22-39.32-34.22A142.35,142.35,0,0,0,411,187.5h0c17.65-12.62,21-21.37,20.06-27.31-1.1-7.18-9.23-15.83-5.62-23,.84-1.64,1.66-1.88,1.57-3-.56-7-33.47-8.76-23.52-16.9,11.23-9.19-15.32-13.79-38.3-9.7A35.25,35.25,0,0,0,344.65,119l-7.87,14.82a140,140,0,0,0-44.11-6.27C220,128.92,159.1,186.17,153.27,259.33c0,0-8.17-16.85-40.86,9.69s10.73,21.46,10.73,21.46-21.45,23-18.39,39.83c.81,4.43,2.39,6.6,4.29,7.39,3.42,1.44,8.55-1,13.08-6.37-2.55,16.54,4.21,32.89,17.36,41.87,15.8,10.79,33.35,5.83,35.74,5.11,1,3.26,7.89,25,30.64,35.23,25.76,11.57,49.32-1.74,51.58-3.06,2.24,1.68,24.55,17.78,51.57,9.19,21-6.69,30.68-23.82,32.68-27.58,23,12.15,50.6,9.9,70-5.61,24.59-19.71,23.16-50.65,23-53.62,0,0,4.59,24,14.81,23s7.14-56.68,7.14-56.68S482.12,308.86,476.5,291.5Z" transform="translate(-5.08 -101.59)"/><path class="cls-8" d="M175.22,378.31a46.79,46.79,0,0,1,10.16-47.6" transform="translate(-5.08 -101.59)"/><circle cx="255.41" cy="237.96" r="31.28"/><ellipse cx="256.35" cy="209.74" rx="50.11" ry="31.28"/><path class="cls-8" d="M322.81,415.88c-.57,18.8-5.94,25.8-10.78,28.71-4.5,2.69-7.62,1.29-15,5.17-9.06,4.76-8.37,9-15.12,12.19-8.38,4-10.67-1.92-28.24-.95-11.23.62-18,3.46-23.33-1.09-1.74-1.48-2-2.59-3.58-5.11-7.05-11.25-16.24-11.57-21.95-18.89-2.93-3.75-5.79-10.34-4-22.62" transform="translate(-5.08 -101.59)"/><ellipse class="cls-10" cx="256.37" cy="187.42" rx="15.32" ry="4.52"/><path d="M299,129.84l-32.76,94.64.51-93.09Z" transform="translate(-5.08 -101.59)"/><path d="M310.56,131l-10.62,37.28h13.78q-19.39,29.12-38.8,58.22l63.29-65.83-19.37-6.17,12.79-18.83Z" transform="translate(-5.08 -101.59)"/><path d="M251.62,135l-1.21,35.37-10.93,1.81q10.07,25.4,20.12,50.79l-46-55.66,19-8.87-5.46-13.79Z" transform="translate(-5.08 -101.59)"/><polygon points="429.56 138.89 400.46 128.85 429.56 128.85 429.56 138.89"/><polygon points="429.56 154.6 400.46 144.56 429.56 144.56 429.56 154.6"/><polygon points="152.97 141.72 167.52 131.68 152.97 131.68 152.97 141.72"/><polygon points="152.97 157.43 167.52 147.39 152.97 147.39 152.97 157.43"/><path d="M223.24,141.29c-9.21-11.26-26.17-11.85-35.75-2.17s-8.84,26.49,2.39,35.62Z" transform="translate(-5.08 -101.59)"/><polyline points="294.02 124.57 315.01 111.2 310.77 123.66 351.84 104.76"/><polyline points="221.68 123.8 200.68 110.43 204.92 122.89 163.85 103.99"/><polygon points="120.38 339.98 127.84 366.65 140.6 361.76 137.54 400.87 130.49 380.95 120.38 385.46 105.28 348.22 120.38 339.98"/><polygon points="50.63 400.69 75.74 412.37 68.84 424.18 107.92 427.5 89.42 417.31 95.5 408.06 61.21 387.13 50.63 400.69"/><path d="M92.72,462.79l36.12,52.43-52.53-36.7Z" transform="translate(-5.08 -101.59)"/><polygon points="448.81 334.06 444.63 361.44 431.36 358.13 439.13 396.58 443.72 375.96 454.31 379.21 464.79 340.42 448.81 334.06"/><polygon points="525.38 385.9 501.87 400.53 510.14 411.42 471.75 419.44 488.89 407.09 481.73 398.64 513.24 373.71 525.38 385.9"/><path d="M489,452.76l-29.52,56.41,47.7-42.77Z" transform="translate(-5.08 -101.59)"/><polygon points="548.91 419.44 532.19 438.68 525.02 428 510.65 463.28 524.2 449.67 529.61 458.67 556.34 434.18 548.91 419.44"/><polygon points="573.64 507.08 550.5 504.47 550.49 518.14 520.79 501.24 538.5 501.81 538.02 490.75 571.73 490.03 573.64 507.08"/><path d="M568.69,555.89l-48.4,27,53.59-5.1Z" transform="translate(-5.08 -101.59)"/><polygon points="11.36 521.55 32.65 516.62 33.56 530.24 59.99 510.41 43.6 512.76 43.32 501.69 12.01 504.38 11.36 521.55"/><polygon points="30.23 432.3 47 449.78 52.94 438.42 68.61 472.13 55.13 459.93 50.71 469.45 24.31 447.74 30.23 432.3"/><path d="M20.19,584.42,69.35,594l-43.7-31.22Z" transform="translate(-5.08 -101.59)"/><path class="cls-8" d="M257.44,410.48a48.7,48.7,0,0,1-8.09-20.88c-2.41-17.89,6.23-31.42,8.76-35.09" transform="translate(-5.08 -101.59)"/><path d="M364.16,141.73c8.18-12,25-14.12,35.42-5.32s11.15,25.6.77,35.69Z" transform="translate(-5.08 -101.59)"/><circle cx="211.32" cy="295.46" r="4.07"/><circle cx="190.64" cy="280.91" r="4.07"/><circle cx="198.42" cy="258.43" r="4.07"/><rect class="cls-10" x="279.43" y="138.89" width="68.68" height="53.99" rx="27"/><path class="cls-11" d="M351.84,259a34.8,34.8,0,0,0-12.29-15c-15.27-10.27-33.1-3.38-34.91-2.65,14.63-3.26,29.39,2.69,36.62,14.46,8.52,13.85,2.37,28.93,1.73,30.43a26.9,26.9,0,0,0,7.58-10.18A27.47,27.47,0,0,0,351.84,259Z" transform="translate(-5.08 -101.59)"/><rect class="cls-12" x="278.95" y="136.92" width="68.68" height="53.99" rx="27"/><ellipse cx="304.46" cy="165.89" rx="12" ry="21.33"/><circle class="cls-10" cx="316.46" cy="160.4" r="5.8"/><rect class="cls-10" x="168.18" y="138.89" width="68.68" height="53.99" rx="27"/><path class="cls-11" d="M240.6,259a34.76,34.76,0,0,0-12.3-15c-15.26-10.27-33.09-3.38-34.9-2.65,14.63-3.26,29.39,2.69,36.62,14.46,8.51,13.85,2.36,28.93,1.72,30.43a26.9,26.9,0,0,0,7.58-10.18A27.42,27.42,0,0,0,240.6,259Z" transform="translate(-5.08 -101.59)"/><rect class="cls-12" x="167.7" y="136.92" width="68.68" height="53.99" rx="27"/><ellipse cx="193.22" cy="165.89" rx="12" ry="21.33"/><circle class="cls-10" cx="205.22" cy="160.4" r="5.8"/><path class="cls-11" d="M539.73,275.22" transform="translate(-5.08 -101.59)"/><path class="cls-13" d="M203.5,360c-13.82-5-31.45-8.81-43,0-3.3,2.52-4.1,4.53-7.15,7.12-6.93,5.89-20,10.18-47.24,2.56" transform="translate(-5.08 -101.59)"/><path class="cls-13" d="M194.38,381.87c-13.82-5-31.45-8.81-43,0-3.29,2.51-4.09,4.52-7.14,7.12-6.93,5.89-20,10.18-47.24,2.55" transform="translate(-5.08 -101.59)"/><path class="cls-13" d="M217.5,396.87c-13.83-5-31.45-8.81-43,0-3.3,2.51-4.09,4.52-7.15,7.12-6.93,5.89-20,10.18-47.23,2.56" transform="translate(-5.08 -101.59)"/><circle cx="294.94" cy="295.26" r="4.07"/><circle cx="315.62" cy="280.71" r="4.07"/><circle cx="307.84" cy="258.23" r="4.07"/><path class="cls-13" d="M312.92,359.82c13.83-5,31.45-8.81,43,0,3.3,2.51,4.09,4.52,7.15,7.12,6.93,5.89,20,10.18,47.23,2.55" transform="translate(-5.08 -101.59)"/><path class="cls-13" d="M322,381.67c13.83-5,31.46-8.81,43,0,3.3,2.52,4.09,4.53,7.15,7.12,6.93,5.89,20,10.19,47.23,2.56" transform="translate(-5.08 -101.59)"/><path class="cls-13" d="M298.93,396.67c13.82-5,31.45-8.81,43,0,3.3,2.52,4.1,4.53,7.15,7.13,6.93,5.89,20,10.18,47.24,2.55" transform="translate(-5.08 -101.59)"/></svg>